<mxfile host="app.diagrams.net" modified="2024-03-25T14:32:06.330Z" agent="Mozilla/5.0 (Windows NT 10.0; Win64; x64) AppleWebKit/537.36 (KHTML, like Gecko) Chrome/122.0.0.0 Safari/537.36" etag="_GL5ohgAR1QHLN95Ofhv" version="24.1.0" type="device">
  <diagram name="Página-1" id="YcP1m3-jalSea1rTT311">
    <mxGraphModel dx="1050" dy="530" grid="1" gridSize="10" guides="1" tooltips="1" connect="1" arrows="1" fold="1" page="1" pageScale="1" pageWidth="827" pageHeight="1169" math="0" shadow="0">
      <root>
        <mxCell id="0" />
        <mxCell id="1" parent="0" />
        <mxCell id="DAJe6uccmAp4oOzM-Jns-23" value="" style="edgeStyle=orthogonalEdgeStyle;rounded=0;orthogonalLoop=1;jettySize=auto;html=1;" edge="1" parent="1" source="DAJe6uccmAp4oOzM-Jns-2" target="DAJe6uccmAp4oOzM-Jns-21">
          <mxGeometry relative="1" as="geometry" />
        </mxCell>
        <mxCell id="DAJe6uccmAp4oOzM-Jns-2" value="x, y" style="html=1;overflow=block;blockSpacing=1;whiteSpace=wrap;fontSize=16.5;fontColor=#3a414a;align=center;spacing=9;strokeColor=#3a414a;rounded=1;absoluteArcSize=1;arcSize=9;fillColor=#ffffff;strokeWidth=0.8;lucidId=LeUmi8gO5ECg;" vertex="1" parent="1">
          <mxGeometry x="324" y="710" width="117" height="40" as="geometry" />
        </mxCell>
        <mxCell id="DAJe6uccmAp4oOzM-Jns-6" value="Início" style="html=1;overflow=block;blockSpacing=1;whiteSpace=wrap;fontSize=16.5;fontColor=#3a414a;align=center;spacing=9;strokeColor=#3a414a;rounded=1;absoluteArcSize=1;arcSize=9;fillColor=#ffffff;strokeWidth=0.8;lucidId=LeUmJB4kJISI;" vertex="1" parent="1">
          <mxGeometry x="348" y="620" width="69" height="47" as="geometry" />
        </mxCell>
        <mxCell id="DAJe6uccmAp4oOzM-Jns-7" value="Fim" style="html=1;overflow=block;blockSpacing=1;whiteSpace=wrap;fontSize=16.5;fontColor=#3a414a;align=center;spacing=9;strokeColor=#3a414a;rounded=1;absoluteArcSize=1;arcSize=9;fillColor=#ffffff;strokeWidth=0.8;lucidId=LeUmEktBr6eg;" vertex="1" parent="1">
          <mxGeometry x="355" y="1000" width="55" height="47" as="geometry" />
        </mxCell>
        <mxCell id="DAJe6uccmAp4oOzM-Jns-8" value="" style="html=1;jettySize=18;whiteSpace=wrap;fontSize=13;strokeColor=#0b0b0b;strokeWidth=1.5;rounded=1;arcSize=12;edgeStyle=orthogonalEdgeStyle;startArrow=none;endArrow=block;endFill=1;exitX=0.5;exitY=1.008;exitPerimeter=0;entryX=0.5;entryY=0;lucidId=LeUmiLa~zZg4;entryDx=0;entryDy=0;" edge="1" parent="1" source="DAJe6uccmAp4oOzM-Jns-6" target="DAJe6uccmAp4oOzM-Jns-2">
          <mxGeometry width="100" height="100" relative="1" as="geometry">
            <Array as="points" />
            <mxPoint x="382.5" y="644.624" as="targetPoint" />
          </mxGeometry>
        </mxCell>
        <mxCell id="DAJe6uccmAp4oOzM-Jns-9" value="" style="text;html=1;resizable=0;labelBackgroundColor=default;align=center;verticalAlign=middle;fontSize=13;" vertex="1" parent="DAJe6uccmAp4oOzM-Jns-8">
          <mxGeometry relative="1" as="geometry" />
        </mxCell>
        <mxCell id="DAJe6uccmAp4oOzM-Jns-16" value="" style="html=1;jettySize=18;whiteSpace=wrap;fontSize=13;strokeColor=#0b0b0b;strokeWidth=1.5;rounded=1;arcSize=12;edgeStyle=orthogonalEdgeStyle;startArrow=none;endArrow=block;endFill=1;exitX=0.5;exitY=1;exitPerimeter=0;lucidId=LeUmmv3Z2Q7x;exitDx=0;exitDy=0;entryX=0.5;entryY=0;entryDx=0;entryDy=0;" edge="1" parent="1" source="DAJe6uccmAp4oOzM-Jns-26" target="DAJe6uccmAp4oOzM-Jns-7">
          <mxGeometry width="100" height="100" relative="1" as="geometry">
            <Array as="points" />
            <mxPoint x="382" y="927.376" as="sourcePoint" />
            <mxPoint x="382" y="1131" as="targetPoint" />
          </mxGeometry>
        </mxCell>
        <mxCell id="DAJe6uccmAp4oOzM-Jns-17" value="" style="text;html=1;resizable=0;labelBackgroundColor=default;align=center;verticalAlign=middle;fontSize=13;" vertex="1" parent="DAJe6uccmAp4oOzM-Jns-16">
          <mxGeometry relative="1" as="geometry" />
        </mxCell>
        <mxCell id="DAJe6uccmAp4oOzM-Jns-24" value="" style="edgeStyle=orthogonalEdgeStyle;rounded=0;orthogonalLoop=1;jettySize=auto;html=1;entryX=0.5;entryY=0;entryDx=0;entryDy=0;entryPerimeter=0;" edge="1" parent="1" source="DAJe6uccmAp4oOzM-Jns-21" target="DAJe6uccmAp4oOzM-Jns-26">
          <mxGeometry relative="1" as="geometry">
            <mxPoint x="382" y="880" as="targetPoint" />
          </mxGeometry>
        </mxCell>
        <mxCell id="DAJe6uccmAp4oOzM-Jns-21" value="&lt;div&gt;&lt;br&gt;&lt;/div&gt;&lt;div&gt;&lt;font style=&quot;font-size: 17px;&quot;&gt;x, y&lt;/font&gt;&lt;/div&gt;" style="html=1;strokeWidth=0.8;shape=manualInput;whiteSpace=wrap;rounded=1;size=26;arcSize=11;" vertex="1" parent="1">
          <mxGeometry x="332.5" y="800" width="100" height="60" as="geometry" />
        </mxCell>
        <mxCell id="DAJe6uccmAp4oOzM-Jns-26" value="&lt;span style=&quot;color: rgb(58, 65, 74); font-size: 17px;&quot;&gt;x + y&lt;/span&gt;" style="strokeWidth=0.8;html=1;shape=mxgraph.flowchart.display;whiteSpace=wrap;" vertex="1" parent="1">
          <mxGeometry x="332.5" y="890" width="100" height="60" as="geometry" />
        </mxCell>
      </root>
    </mxGraphModel>
  </diagram>
</mxfile>
